<svg xmlns="http://www.w3.org/2000/svg" width="29.679" height="28.948" viewBox="0 0 29.679 28.948">
  <path id="github" d="M14.84,0a14.841,14.841,0,0,0-4.691,28.921c.741.137.981-.323.981-.714V25.445c-4.128.9-4.987-1.751-4.987-1.751a3.93,3.93,0,0,0-1.648-2.172c-1.347-.921.1-.9.1-.9a3.115,3.115,0,0,1,2.274,1.53,3.159,3.159,0,0,0,4.318,1.233,3.148,3.148,0,0,1,.942-1.984c-3.3-.377-6.761-1.65-6.761-7.335A5.744,5.744,0,0,1,6.9,10.082a5.338,5.338,0,0,1,.145-3.928s1.247-.4,4.082,1.521a14.066,14.066,0,0,1,7.431,0c2.833-1.919,4.077-1.521,4.077-1.521a5.333,5.333,0,0,1,.146,3.928,5.728,5.728,0,0,1,1.527,3.983c0,5.7-3.471,6.955-6.776,7.322a3.547,3.547,0,0,1,1.018,2.748v4.072c0,.394.237.858.991.712A14.842,14.842,0,0,0,14.84,0Z" fill="#fff"/>
</svg>
