<svg xmlns="http://www.w3.org/2000/svg" width="28.948" height="28.948" viewBox="0 0 28.948 28.948">
  <path id="linkedin" d="M17.474,3A14.474,14.474,0,1,0,31.948,17.474,14.474,14.474,0,0,0,17.474,3ZM12.041,9.517A1.572,1.572,0,0,1,13.734,11.1a1.609,1.609,0,0,1-1.8,1.579A1.572,1.572,0,0,1,10.237,11.1,1.609,1.609,0,0,1,12.041,9.517ZM13.855,23.5H10.237V13.855h3.618Zm12.061,0H22.511V18.231c0-1.458-.908-1.795-1.248-1.795s-1.476.224-1.476,1.795V23.5H16.268V13.855h3.52V15.2c.454-.785,1.362-1.346,3.065-1.346s3.065,1.346,3.065,4.376Z" transform="translate(-3 -3)" fill="#fff"/>
</svg>
