<svg width="1520" height="465" fill="none" xmlns="http://www.w3.org/2000/svg"><path d="m337.568 290.372 72.656 34.98 64.286-238.24-72.656-34.979-64.286 238.239ZM249.409 8.633 169.615.103 105.328 238.34l79.795 8.53L249.409 8.633Z" fill="#fff"/><path d="m257.774 281.842 79.792 8.538 64.288-238.246-79.794-8.53-64.286 238.238Z" fill="#fff"/><path d="m185.116 246.869 72.651 34.971L322.054 43.6 249.402 8.63l-64.286 238.24Zm157.294 25.568 58.782 31.012 54.607-202.358-58.789-31.014-54.6 202.36ZM244.534 26.638l-65.409-4.434-54.593 202.276 65.41 4.434 54.592-202.276Zm18.082 237.269 79.794 8.53 54.6-202.36-79.787-8.528-54.607 202.358Z" fill="#F8F9FA"/><path d="m189.953 228.926 72.656 34.98 54.607-202.358-72.656-34.98-54.607 202.358Z" fill="#F8F9FA"/><path d="M249.409 8.633 169.615.103 105.328 238.34l79.795 8.53L249.409 8.633Zm8.365 273.209 79.792 8.538 64.288-238.246-79.794-8.53-64.286 238.238Z" fill="#000" fill-opacity=".03"/><path d="m191.295 246.612-23.32 14.454 7.454-4.62-40.111 24.862c-6.046 3.747-8.329 11.685-5.101 17.734l54.085-33.522c-1.649-3.089-.546-7.259 2.542-9.172l12.491-7.743-8.04-1.993Z" fill="#F1F3F4"/><path d="M174.791 266.287c.98.243 2.014-.399 2.312-1.433.297-1.033-.255-2.068-1.235-2.311-.979-.243-2.014.399-2.311 1.432-.297 1.034.255 2.069 1.234 2.312Z" fill="#2A2C33"/><path opacity=".8" d="m184.587 266.334.006.001-.001-.006-.005.005Z" fill="url(#a)"/><path d="M174.742 266.206c.979.243 2.014-.399 2.311-1.433.298-1.033-.255-2.068-1.234-2.311-.979-.243-2.014.399-2.311 1.432-.298 1.034.255 2.069 1.234 2.312Z" fill="#2A2C33"/><path opacity=".8" d="m178.232 255.324-.001-.006.008.002-.007.004Z" fill="url(#b)"/><g opacity=".5"><path opacity=".8" d="m167.681 261.569 2.746-1.702 4.723-2.927-7.469 4.629Z" fill="url(#c)"/></g><path d="M241.061 239.144c-2.933-5.846-10.079-7.774-15.743-4.333l-18.548 11.268-2.432-.62c-3.683-.938-7.641-.319-11.007 1.726l-5.408 3.286 8.184 2.085.472-.286c2.335-1.416 5.265-.67 6.545 1.668l2.197 4.01a4.562 4.562 0 0 0 2.879 2.243l9.41 2.397c2.763.705 5.731.239 8.254-1.292l10.235-6.218c5.442-3.306 7.756-10.367 4.962-15.934Zm-7.235 11.669-8.169 4.963c-2.521 1.531-5.491 1.996-8.254 1.292l-2.513-.64c-4.124-1.051-4.739-6.76-.972-9.048l13.719-8.336c3.244-1.971 7.332-.901 9.061 2.404 1.699 3.246.328 7.421-2.872 9.365Z" fill="#81C995"/><path d="M177.924 265.554c.984.247 2.018-.388 2.311-1.418.293-1.029-.267-2.064-1.251-2.311-.984-.247-2.018.388-2.311 1.417-.293 1.03.267 2.065 1.251 2.312Z" fill="#2A2C33"/><path opacity=".8" d="m174.209 255.243-.005-.005.007-.001-.002.006Z" fill="url(#d)"/><path d="m190.263 243.92-7.24 26.174 2.314-8.366-12.452 45.018c-1.877 6.784-8.521 10.97-14.843 9.346l15.163-54.82.771-2.784a4.196 4.196 0 0 1 3.313-3.007c2.409-.426 4.551-2.321 5.281-4.962l3.842-13.89 3.851 7.291Z" fill="#F8F9FA"/><path d="M178.016 265.578c.983.247 2.018-.388 2.311-1.417.293-1.03-.267-2.065-1.251-2.312-.984-.247-2.019.388-2.311 1.418-.293 1.029.267 2.064 1.251 2.311Z" fill="#E8EAED"/><path opacity=".8" d="m186.483 258.531.007-.001-.005-.005-.002.006Z" fill="url(#e)"/><path d="m189.213 230.636-1.205-2.198 3.282-11.701c1.787-6.366-1.853-12.793-8.1-14.136-5.95-1.283-11.991 2.76-13.708 8.878l-.662 2.361c-.795 2.835-.473 5.827.894 8.324l4.662 8.5a4.507 4.507 0 0 0 2.845 2.214l4.33 1.102c2.528.643 3.979 3.29 3.243 5.913l-.148.527 4.054 7.391 1.705-6.078c1.061-3.78.632-7.771-1.192-11.097Zm-4.259-8.785c-1.187 4.23-6.71 5.096-8.753 1.371l-1.245-2.271c-1.368-2.494-1.689-5.489-.894-8.323l.011-.041c1.009-3.596 4.584-5.989 8.065-5.175 3.548.831 5.601 4.514 4.577 8.161l-1.761 6.278Z" fill="#A8DAB5"/><path d="M1131.61 385.139c3.17 1.797 7.31.577 9.24-2.725 1.93-3.301.92-7.434-2.25-9.231-3.17-1.797-7.3-.577-9.23 2.725-1.93 3.301-.92 7.434 2.24 9.231Z" fill="#81C995"/><path d="m1117.99 380.358.23 27.977L1142 394.96a18.513 18.513 0 0 0 7.97-7.356c4.95-8.46 2.37-19.051-5.77-23.655-8.13-4.605-18.74-1.478-23.69 6.982-1.68 2.872-2.56 6.163-2.52 9.427Z" stroke="#BDC1C6" stroke-width="2" stroke-linecap="round" stroke-dasharray="0.1 7"/><path d="m211.632 332.523 3.274-1.89 10.814 18.731" stroke="#DADCE0" stroke-width="3" stroke-miterlimit="10" stroke-linecap="round" stroke-linejoin="round"/><path d="m207.102 345.162 30.864 53.457 8.461-4.885-30.863-53.458-8.462 4.886Zm39.19 48.65 2.148 12.014c.09.497-.548.873-.941.555l-9.58-7.734 8.373-4.835Z" fill="#F1F3F4"/><path d="m245.739 404.959 1.759 1.421c.391.315 1.029-.061.941-.555l-.393-2.183-2.307 1.317Z" fill="#BDC1C6"/><path d="m224.622 353.449-13.391-23.195c-1.563-2.707-5.263-3.499-8.26-1.769l-.057.033c-2.997 1.731-4.161 5.331-2.598 8.038l13.391 23.195 10.915-6.302Z" fill="#DADCE0"/><path d="m1229 294.188 251.25-65.187 12.54 45.662-251.25 65.187-12.54-45.662Z" fill="#F8F9FA"/><path d="m1432.56 265.682-5.64-21.941m12.1 9.328-3.01-11.695m12.16 9.315-3.01-11.695m11.97 9.361-3-11.694m12.16 9.313-3.01-11.695m-76.36 43.277-5.64-21.942m12.1 9.329-3-11.695m12.16 9.313-3.01-11.695m11.97 9.362-3.01-11.695m12.16 9.315-3-11.695m-76.04 43.192-5.64-21.941m12.1 9.328-3.01-11.694m12.16 9.312-3.01-11.694m11.97 9.362-3-11.694m12.16 9.313-3.01-11.694m-76.16 43.224-5.64-21.942m12.1 9.329-3.01-11.694m12.16 9.313-3.01-11.695m11.98 9.363-3.01-11.694m12.16 9.312-3.01-11.694m-76 43.184-5.64-21.942m12.1 9.329-3.01-11.694m12.16 9.313-3.01-11.695m11.97 9.361-3-11.694m12.16 9.314-3.01-11.694" stroke="#DADCE0" stroke-width="2" stroke-miterlimit="10" stroke-linecap="square"/><mask id="f" style="mask-type:alpha" maskUnits="userSpaceOnUse" x="1241" y="79" width="165" height="165"><path d="M1380.12 218.059c33.71-33.738 33.11-88.648-.61-122.37l-14.65-14.644a4.306 4.306 0 0 0-6.09 0l-115.73 115.727a4.317 4.317 0 0 0 0 6.089l15.23 15.228c33.65 33.657 88.21 33.644 121.85-.03Zm-25.95-95.864c.86-.864 2.28-.842 3.1.059 18.62 20.279 18.11 51.819-1.55 71.473-19.65 19.654-51.2 20.173-71.47 1.548a2.155 2.155 0 0 1-.06-3.104l69.98-69.976Z" fill="#C4C4C4"/></mask><g mask="url(#f)" stroke="#DADCE0" stroke-width="2"><path d="m1383.13 221.138-12.17-12.179m-20.85 33.215-5.89-16.189m33.1.485-5.54-6.6m-.72 11.4-4.94-7.054m-1.71 11.295-4.32-7.459m-2.69 11.103-3.64-7.807m-42.46 15.938 1.5-17.158m29.79 14.423-2.23-8.322m-5.47 10.027-1.5-8.484m-6.32 9.513-.76-8.577m-7.13 8.923v-8.613m-45.22-3.507 8.61-14.917m20.9 25.663 1.5-8.48m-9.2 6.771 2.23-8.322m-9.75 5.952 2.94-8.097m-10.24 5.074 3.65-7.803m-17.3-.081 4.94-7.054m-11.2 2.253 5.54-6.599m115.29-115.289 6.6-5.536m-5.34 122.092-12.17-12.179m33.21-20.841-16.18-5.894m.48 33.096-6.6-5.536m11.4-.723-7.06-4.942m11.3-1.712-7.46-4.307m11.1-2.694-7.81-3.64m15.94-42.463-17.16 1.501m14.43 29.792-8.33-2.233m10.04-5.472-8.49-1.497m9.52-6.327-8.59-.748m8.93-7.136-8.62.004m-3.5-45.227-14.92 8.615m25.66 20.904-8.48 1.496m6.77-9.201-8.31 2.229m5.94-9.752-8.09 2.943m5.07-10.235-7.8 3.644m-.08-17.298-7.06 4.941m2.26-11.2-6.6 5.536m1.26-11.354-6.09 6.089m-115.72 115.728-6.1 6.093m11.36-1.267-5.54 6.599"/></g><path d="M1378.8 96.393c33.34 33.342 33.93 87.622.62 120.963-33.25 33.285-87.18 33.297-120.44.029l-15.23-15.228a3.307 3.307 0 0 1 0-4.682l115.73-115.727a3.308 3.308 0 0 1 4.68 0l14.64 14.645Zm-22.37 98.038c20.03-20.033 20.55-52.178 1.57-72.849-1.21-1.325-3.28-1.349-4.54-.091l-69.97 69.976c-1.26 1.258-1.24 3.329.09 4.542 20.66 18.983 52.81 18.454 72.85-1.578Z" stroke="#DADCE0" stroke-width="2"/><path d="m374.775 224.543 14.563 24.554 14.916-23.089a17.694 17.694 0 0 0 3.517-10.266c.194-9.811-7.601-17.922-17.412-18.116-9.811-.195-17.922 7.601-18.117 17.412a17.806 17.806 0 0 0 2.533 9.505Z" stroke="#BDC1C6" stroke-width="2" stroke-linecap="round" stroke-dasharray="0.1 7"/><path d="M390.069 222.562a6.493 6.493 0 1 1 .002-12.986 6.493 6.493 0 0 1-.002 12.986Z" fill="#F28B82"/><path d="M389 251.813a1 1 0 1 0 0-2v2Zm-24 103a1 1 0 0 0 0 2v-2Zm1.05 2a1 1 0 1 0 0-2v2Zm10.344-2a1 1 0 0 0 0 2v-2Zm2.065 2a1 1 0 1 0 0-2v2Zm10.36-2a1 1 0 1 0 0 2v-2Zm2.044 1.989a1 1 0 0 0-.048-2l.048 2Zm8.899-3.405a1 1 0 0 0 .595 1.909l-.595-1.909Zm2.419 1.275a1 1 0 1 0-.72-1.866l.72 1.866Zm6.9-6.533a1 1 0 0 0 1.353 1.473l-1.353-1.473Zm2.74.09a1 1 0 1 0-1.469-1.357l1.469 1.357Zm3.056-8.989a1 1 0 0 0 1.898.632l-1.898-.632Zm2.436-1.254a1.001 1.001 0 0 0-1.946-.464l1.946.464Zm-1.825-9.312a1 1 0 0 0 1.956-.418l-1.956.418Zm1.457-2.319a.999.999 0 0 0-1.252-.656.998.998 0 0 0-.657 1.252l1.909-.596Zm-6.392-7.007a1 1 0 1 0 1.449-1.379l-1.449 1.379Zm.037-2.738a.999.999 0 1 0-1.323 1.499l1.323-1.499Zm-9.066-2.962a1 1 0 1 0 .667-1.885l-.667 1.885Zm-1.165-2.47a1 1 0 0 0-.548 1.924l.548-1.924Zm-9.538.645a1 1 0 1 0 .042-1.999l-.042 1.999Zm-1.947-2.01a1 1 0 1 0 0 2v-2Zm-9.886 2a1 1 0 1 0 0-2v2Zm-1.968-2a1 1 0 0 0 0 2v-2Zm-9.88 2a1 1 0 1 0 0-2v2Zm-1.977-2a1 1 0 0 0 0 2v-2Zm-9.884 2a1 1 0 1 0 0-2v2Zm-1.976-2a1 1 0 0 0 0 2v-2Zm-9.879 2a1 1 0 1 0 0-2v2Zm-1.975-2a1 1 0 0 0 0 2v-2Zm-9.9 2a1 1 0 1 0 0-2v2Zm-1.957-2a1 1 0 1 0 0 2v-2Zm-9.881 2a1 1 0 1 0 0-2v2Zm-2.005-2a1 1 0 1 0 0 2v-2Zm-9.856 2a1 1 0 1 0 0-2v2Zm-1.987-2a1 1 0 0 0 0 2v-2Zm-9.885 2a1 1 0 1 0 0-2v2Zm-2.075-2.007a1.001 1.001 0 0 0-.027 2l.027-2Zm-10.61 1.062a1 1 0 1 0 .34-1.971l-.34 1.971Zm-1.668-2.355a1 1 0 0 0-.413 1.957l.413-1.957Zm-10.569-1.347a1 1 0 0 0 .839-1.815l-.839 1.815Zm-.971-2.711a1 1 0 0 0-.935 1.768l.935-1.768Zm-9.557-4.65a.999.999 0 1 0 1.444-1.383l-1.444 1.383Zm.098-2.898a1 1 0 1 0-1.544 1.271l1.544-1.271Zm-6.62-8.262a1 1 0 0 0 1.921-.556l-1.921.556Zm1.446-2.505a1 1 0 1 0-1.962.39l1.962-.39Zm-1.788-10.422a.999.999 0 1 0 1.949.447l-1.949-.447Zm2.478-1.494a1 1 0 0 0-1.907-.602l1.907.602Zm3.248-10.082a1 1 0 1 0 1.554 1.26l-1.554-1.26Zm2.876-.261a1 1 0 1 0-1.464-1.363l1.464 1.363Zm6.992-7.976a1 1 0 1 0 .987 1.739l-.987-1.739Zm2.785.782a1.002 1.002 0 0 0-.894-1.79l.894 1.79Zm9.188-5.374a.999.999 0 1 0 .455 1.947l-.455-1.947Zm2.438 1.526a1 1 0 0 0-.377-1.964l.377 1.964Zm10.209-3.017a1 1 0 1 0 .031 2l-.031-2Zm2.12 1.991a1 1 0 1 0 0-2v2Zm9.805-2a1 1 0 1 0 0 2v-2Zm1.94 2a1 1 0 1 0 0-2v2Zm9.762-2a1 1 0 1 0 0 2v-2Zm1.958 2a1 1 0 1 0 0-2v2Zm9.755-2a1 1 0 0 0 0 2v-2Zm1.942 2a1 1 0 1 0 0-2v2Zm9.788-2a1 1 0 0 0 0 2v-2Zm1.958 2a1 1 0 1 0 0-2v2Zm9.791-2a1 1 0 0 0 0 2v-2Zm1.927 2a1 1 0 1 0 0-2v2Zm9.862-2a1 1 0 0 0 0 2v-2Zm1.892 2a1 1 0 1 0 0-2v2Zm9.779-2a1 1 0 1 0 0 2v-2Zm2 2a1 1 0 1 0 0-2v2Zm9.818-2a1 1 0 0 0 0 2v-2Zm-22.975 107h1.05v-2H365v2Zm11.394 0h2.065v-2h-2.065v2Zm12.425 0h1.064v-2h-1.064v2Zm1.064 0c.329 0 .656-.003.98-.011l-.048-2c-.308.008-.618.011-.932.011v2Zm10.474-1.507a29.17 29.17 0 0 0 1.824-.634l-.72-1.866c-.55.212-1.117.41-1.699.591l.595 1.909Zm10.077-5.694c.485-.446.948-.908 1.387-1.383l-1.469-1.357c-.402.435-.826.858-1.271 1.267l1.353 1.473Zm6.341-9.74c.207-.623.386-1.252.538-1.886l-1.946-.464a20.553 20.553 0 0 1-.49 1.718l1.898.632Zm.669-11.616a21.34 21.34 0 0 0-.499-1.901l-1.909.596c.177.568.328 1.143.452 1.723l1.956-.418Zm-5.442-10.287a22.197 22.197 0 0 0-1.412-1.359l-1.323 1.499c.452.399.881.813 1.286 1.239l1.449-1.379Zm-9.811-6.206a30.429 30.429 0 0 0-1.832-.585l-.548 1.924c.588.167 1.159.35 1.713.546l.667-1.885Zm-11.328-1.939c-.323-.007-.65-.011-.98-.011v2c.316 0 .628.004.938.01l.042-1.999Zm-.98-.011h-1.009v2h1.009v-2Zm-10.895 0h-1.968v2h1.968v-2Zm-11.848 0h-1.977v2h1.977v-2Zm-11.861 0h-1.976v2h1.976v-2Zm-11.855 0h-1.975v2h1.975v-2Zm-11.875 0h-1.957v2h1.957v-2Zm-11.838 0h-2.005v2h2.005v-2Zm-11.861 0h-1.987v2h1.987v-2Zm-11.872 0h-1.014v2h1.014v-2Zm-1.014 0c-.356 0-.71-.002-1.061-.007l-.027 2c.36.005.723.007 1.088.007v-2Zm-11.331-.916a52.59 52.59 0 0 1-2.008-.384l-.413 1.957a55.22 55.22 0 0 0 2.081.398l.34-1.971Zm-11.738-3.546a36.724 36.724 0 0 1-1.81-.896l-.935 1.768c.617.327 1.253.641 1.906.943l.839-1.815Zm-9.923-6.929c-.473-.494-.922-1-1.346-1.515l-1.544 1.271c.456.554.938 1.097 1.446 1.627l1.444-1.383Zm-6.045-10.333a23.736 23.736 0 0 1-.475-1.949l-1.962.39c.142.71.314 1.415.516 2.115l1.921-.556Zm-.314-11.924c.149-.65.325-1.298.529-1.941l-1.907-.602c-.22.694-.41 1.393-.571 2.096l1.949.447Zm5.331-10.763c.418-.517.859-1.024 1.322-1.521l-1.464-1.363c-.493.53-.964 1.072-1.412 1.624l1.554 1.26Zm9.301-7.758c.583-.331 1.182-.65 1.798-.957l-.894-1.79c-.647.323-1.277.659-1.891 1.008l.987 1.739Zm11.441-4.384c.649-.151 1.31-.292 1.983-.421l-.377-1.964c-.699.134-1.385.28-2.061.438l.455 1.947Zm12.223-1.438c.349-.006.701-.009 1.055-.009v-2c-.364 0-.726.003-1.086.009l.031 2Zm1.055-.009h1.034v-2h-1.034v2Zm10.839 0h1.94v-2h-1.94v2Zm11.702 0h1.958v-2h-1.958v2Zm11.713 0h1.942v-2h-1.942v2Zm11.73 0h1.958v-2h-1.958v2Zm11.749 0h1.927v-2h-1.927v2Zm11.789 0h1.892v-2h-1.892v2Zm11.671 0h2v-2h-2v2Zm11.818 0H389v-2h-1.025v2Z" fill="#BDC1C6"/><path d="M339.183 334.814c11.699 0 21.183 9.484 21.183 21.183s-9.484 21.183-21.183 21.183S318 367.696 318 355.997s9.484-21.183 21.183-21.183Z" stroke="#BDC1C6" stroke-width="2" stroke-linecap="round" stroke-dasharray="0.1 7"/><path d="M339.412 342.184c7.502 0 13.584 6.082 13.584 13.584 0 7.503-6.082 13.585-13.584 13.585-7.503 0-13.585-6.082-13.585-13.585 0-7.502 6.082-13.584 13.585-13.584Zm30.254 13.827-11.743 7.658 2.262-7.787-2.262-7.783 11.743 7.912Z" fill="#8AB4F8"/><path d="M1221.21 251h-46.42c-13.69 0-24.79 11.093-24.79 24.781 0 11.711 8.13 21.517 19.05 24.106v13.065l12.4-12.39h39.76c13.69 0 24.79-11.094 24.79-24.781 0-13.688-11.1-24.781-24.79-24.781Z" fill="#E8EAED"/><path d="M1172.95 269.07h49.1M1173 282.999h37" stroke="#fff" stroke-width="8" stroke-miterlimit="10" stroke-linecap="round" stroke-linejoin="round"/><path d="M1258.41 316h-58.06c-12.89 0-23.35 10.377-23.35 23.179 0 12.803 10.46 23.18 23.35 23.18h50.7l11.78 11.697v-12.119c10.78-2.055 18.92-11.458 18.92-22.753.01-12.807-10.45-23.184-23.34-23.184Z" fill="#DADCE0"/><path d="m1230.98 327.594 2.87 5.876c.15.314.45.531.79.583l6.46.965c.86.13 1.21 1.2.58 1.811l-4.7 4.546c-.25.243-.36.594-.3.938l1.07 6.449c.15.867-.76 1.524-1.54 1.112l-5.76-3.066a1.046 1.046 0 0 0-.98-.004l-5.79 3.021c-.78.406-1.69-.258-1.53-1.124l1.12-6.441c.06-.344-.05-.696-.3-.94l-4.65-4.581a1.059 1.059 0 0 1 .59-1.807l6.46-.915c.35-.048.65-.265.8-.576l2.91-5.854c.39-.786 1.52-.782 1.9.007Zm-28 0 2.87 5.876c.15.314.45.531.79.583l6.46.965c.86.13 1.21 1.2.58 1.811l-4.7 4.546c-.25.243-.36.594-.3.938l1.07 6.449c.15.867-.76 1.524-1.54 1.112l-5.76-3.066a1.046 1.046 0 0 0-.98-.004l-5.79 3.021c-.78.406-1.69-.258-1.53-1.124l1.12-6.441c.06-.344-.05-.696-.3-.94l-4.65-4.581a1.059 1.059 0 0 1 .59-1.807l6.46-.915c.35-.048.65-.265.8-.576l2.91-5.854c.39-.786 1.52-.782 1.9.007Zm56 0 2.87 5.876c.15.314.45.531.79.583l6.46.965c.86.13 1.21 1.2.58 1.811l-4.7 4.546c-.25.243-.36.594-.3.938l1.07 6.449c.15.867-.76 1.524-1.54 1.112l-5.76-3.066a1.046 1.046 0 0 0-.98-.004l-5.79 3.021c-.78.406-1.69-.258-1.53-1.124l1.12-6.441c.06-.344-.05-.696-.3-.94l-4.65-4.581a1.059 1.059 0 0 1 .59-1.807l6.46-.915c.35-.048.65-.265.8-.576l2.91-5.854c.39-.786 1.52-.782 1.9.007Z" fill="#fff"/><path d="m1141.74 196.691 24.29 14.722" stroke="#E8EAED" stroke-width="2"/><path d="M1181.78 175.64c-5.95 1.515-12.26-2.259-14.02-8.538-1.77-6.279 1.72-12.543 7.68-14.057 5.95-1.515 12.26 2.258 14.03 8.537 1.76 6.28-1.73 12.544-7.69 14.058Z" stroke="#DADCE0" stroke-width="2"/><path d="m1184.9 153.549 2.22-4.051" stroke="#DADCE0" stroke-width="2.213" stroke-miterlimit="10" stroke-linecap="round" stroke-linejoin="round"/><path d="m1196.11 140.375-5.55-3.234-6.08 10.678 5.55 3.234 6.08-10.678Z" fill="#BDC1C6"/><path d="m1098.97 222.372-12.71 11.018" stroke="#E8EAED" stroke-width="3" stroke-miterlimit="10" stroke-linecap="round" stroke-linejoin="round"/><path d="m1094.51 224.899 2.07 2.533 10.55 1.296c1.65.201 3.25-.28 4.48-1.34l58.07-50.276-8.26-10.133-66.91 57.92Z" fill="#E8EAED"/><path d="m1184.16 180.18-13.8-2.506-13.03 82.229 13.81 2.506 13.02-82.229Z" fill="#FEEFC3"/><path d="m1157.25 259.952 3.43 19.798 8.59-17.236-12.02-2.562Z" fill="#fff"/><path d="m1163.24 274.001-4.01-.855 1.14 6.602 2.87-5.747Z" fill="#2A2C33"/><path d="m1157.09 201.456-3.7 6.744" stroke="#F1F3F4" stroke-width="5" stroke-miterlimit="10" stroke-linecap="round"/><defs><linearGradient id="a" x1="184.589" y1="266.333" x2="184.596" y2="266.336" gradientUnits="userSpaceOnUse"><stop stop-color="#fff"/><stop offset="1" stop-color="#979DA5"/></linearGradient><linearGradient id="b" x1="178.252" y1="255.317" x2="178.253" y2="255.311" gradientUnits="userSpaceOnUse"><stop stop-color="#fff"/><stop offset="1" stop-color="#979DA5"/></linearGradient><linearGradient id="c" x1="144.378" y1="276.011" x2="183.701" y2="255.012" gradientUnits="userSpaceOnUse"><stop stop-color="#fff"/><stop offset="1" stop-color="#979DA5"/></linearGradient><linearGradient id="d" x1="174.259" y1="255.258" x2="174.255" y2="255.252" gradientUnits="userSpaceOnUse"><stop stop-color="#fff"/><stop offset="1" stop-color="#979DA5"/></linearGradient><linearGradient id="e" x1="186.555" y1="258.604" x2="186.562" y2="258.601" gradientUnits="userSpaceOnUse"><stop stop-color="#fff"/><stop offset="1" stop-color="#979DA5"/></linearGradient></defs></svg>